<mxfile host="app.diagrams.net" agent="Mozilla/5.0 (Windows NT 10.0; Win64; x64) AppleWebKit/537.36 (KHTML, like Gecko) Chrome/137.0.0.0 Safari/537.36 Edg/137.0.0.0" version="27.1.5">
  <diagram name="第 1 页" id="RajWFViMPmjFbBXTySZg">
    <mxGraphModel dx="1843" dy="1695" grid="0" gridSize="10" guides="1" tooltips="1" connect="1" arrows="1" fold="1" page="0" pageScale="1" pageWidth="827" pageHeight="1169" math="0" shadow="0">
      <root>
        <mxCell id="0" />
        <mxCell id="1" parent="0" />
        <mxCell id="kBxTNqgfzR1XNTAzLRre-33" style="edgeStyle=none;curved=1;rounded=0;orthogonalLoop=1;jettySize=auto;html=1;fontSize=12;startSize=8;endSize=8;" edge="1" parent="1" source="kBxTNqgfzR1XNTAzLRre-1" target="kBxTNqgfzR1XNTAzLRre-26">
          <mxGeometry relative="1" as="geometry" />
        </mxCell>
        <mxCell id="kBxTNqgfzR1XNTAzLRre-34" style="edgeStyle=none;curved=1;rounded=0;orthogonalLoop=1;jettySize=auto;html=1;entryX=1;entryY=0;entryDx=0;entryDy=0;fontSize=12;startSize=8;endSize=8;" edge="1" parent="1" source="kBxTNqgfzR1XNTAzLRre-1" target="kBxTNqgfzR1XNTAzLRre-27">
          <mxGeometry relative="1" as="geometry" />
        </mxCell>
        <mxCell id="kBxTNqgfzR1XNTAzLRre-36" style="edgeStyle=none;curved=1;rounded=0;orthogonalLoop=1;jettySize=auto;html=1;fontSize=12;startSize=8;endSize=8;" edge="1" parent="1" source="kBxTNqgfzR1XNTAzLRre-1" target="kBxTNqgfzR1XNTAzLRre-29">
          <mxGeometry relative="1" as="geometry" />
        </mxCell>
        <mxCell id="kBxTNqgfzR1XNTAzLRre-37" style="edgeStyle=none;curved=1;rounded=0;orthogonalLoop=1;jettySize=auto;html=1;fontSize=12;startSize=8;endSize=8;" edge="1" parent="1" source="kBxTNqgfzR1XNTAzLRre-1" target="kBxTNqgfzR1XNTAzLRre-30">
          <mxGeometry relative="1" as="geometry" />
        </mxCell>
        <mxCell id="kBxTNqgfzR1XNTAzLRre-38" style="edgeStyle=none;curved=1;rounded=0;orthogonalLoop=1;jettySize=auto;html=1;fontSize=12;startSize=8;endSize=8;" edge="1" parent="1" source="kBxTNqgfzR1XNTAzLRre-1" target="kBxTNqgfzR1XNTAzLRre-32">
          <mxGeometry relative="1" as="geometry" />
        </mxCell>
        <mxCell id="kBxTNqgfzR1XNTAzLRre-39" style="edgeStyle=none;curved=1;rounded=0;orthogonalLoop=1;jettySize=auto;html=1;fontSize=12;startSize=8;endSize=8;" edge="1" parent="1" source="kBxTNqgfzR1XNTAzLRre-1" target="kBxTNqgfzR1XNTAzLRre-31">
          <mxGeometry relative="1" as="geometry" />
        </mxCell>
        <mxCell id="kBxTNqgfzR1XNTAzLRre-1" value="城北区" style="rounded=0;whiteSpace=wrap;html=1;" vertex="1" parent="1">
          <mxGeometry x="387" y="-240" width="120" height="60" as="geometry" />
        </mxCell>
        <mxCell id="kBxTNqgfzR1XNTAzLRre-5" value="&lt;div&gt;&lt;br/&gt;&lt;/div&gt;" style="edgeStyle=none;curved=1;rounded=0;orthogonalLoop=1;jettySize=auto;html=1;fontSize=12;startSize=8;endSize=8;entryX=0;entryY=0;entryDx=0;entryDy=0;" edge="1" parent="1" source="kBxTNqgfzR1XNTAzLRre-3" target="kBxTNqgfzR1XNTAzLRre-15">
          <mxGeometry relative="1" as="geometry" />
        </mxCell>
        <mxCell id="kBxTNqgfzR1XNTAzLRre-12" style="edgeStyle=none;curved=1;rounded=0;orthogonalLoop=1;jettySize=auto;html=1;fontSize=12;startSize=8;endSize=8;entryX=0.5;entryY=0;entryDx=0;entryDy=0;" edge="1" parent="1" source="kBxTNqgfzR1XNTAzLRre-3" target="kBxTNqgfzR1XNTAzLRre-19">
          <mxGeometry relative="1" as="geometry">
            <mxPoint x="240" y="-232.46153846153857" as="targetPoint" />
          </mxGeometry>
        </mxCell>
        <mxCell id="kBxTNqgfzR1XNTAzLRre-3" value="锦屏水厂" style="whiteSpace=wrap;html=1;rounded=0;glass=0;shadow=0;" vertex="1" parent="1">
          <mxGeometry x="180" y="-422" width="120" height="60" as="geometry" />
        </mxCell>
        <mxCell id="kBxTNqgfzR1XNTAzLRre-23" style="edgeStyle=none;curved=1;rounded=0;orthogonalLoop=1;jettySize=auto;html=1;fontSize=12;startSize=8;endSize=8;" edge="1" parent="1" source="kBxTNqgfzR1XNTAzLRre-4" target="kBxTNqgfzR1XNTAzLRre-24">
          <mxGeometry relative="1" as="geometry">
            <mxPoint x="625" y="-315.53846153846166" as="targetPoint" />
          </mxGeometry>
        </mxCell>
        <mxCell id="kBxTNqgfzR1XNTAzLRre-54" style="edgeStyle=none;curved=1;rounded=0;orthogonalLoop=1;jettySize=auto;html=1;fontSize=12;startSize=8;endSize=8;entryX=0;entryY=0.5;entryDx=0;entryDy=0;" edge="1" parent="1" source="kBxTNqgfzR1XNTAzLRre-4" target="kBxTNqgfzR1XNTAzLRre-61">
          <mxGeometry relative="1" as="geometry">
            <mxPoint x="802.8799999999999" y="-396.0799999999999" as="targetPoint" />
          </mxGeometry>
        </mxCell>
        <mxCell id="kBxTNqgfzR1XNTAzLRre-4" value="桐树垭水厂" style="whiteSpace=wrap;html=1;" vertex="1" parent="1">
          <mxGeometry x="565" y="-420" width="120" height="60" as="geometry" />
        </mxCell>
        <mxCell id="kBxTNqgfzR1XNTAzLRre-50" style="edgeStyle=none;curved=1;rounded=0;orthogonalLoop=1;jettySize=auto;html=1;fontSize=12;startSize=8;endSize=8;" edge="1" parent="1" source="kBxTNqgfzR1XNTAzLRre-8" target="kBxTNqgfzR1XNTAzLRre-49">
          <mxGeometry relative="1" as="geometry" />
        </mxCell>
        <mxCell id="kBxTNqgfzR1XNTAzLRre-51" style="edgeStyle=none;curved=1;rounded=0;orthogonalLoop=1;jettySize=auto;html=1;fontSize=12;startSize=8;endSize=8;" edge="1" parent="1" source="kBxTNqgfzR1XNTAzLRre-8" target="kBxTNqgfzR1XNTAzLRre-48">
          <mxGeometry relative="1" as="geometry" />
        </mxCell>
        <mxCell id="kBxTNqgfzR1XNTAzLRre-52" style="edgeStyle=none;curved=1;rounded=0;orthogonalLoop=1;jettySize=auto;html=1;fontSize=12;startSize=8;endSize=8;" edge="1" parent="1" source="kBxTNqgfzR1XNTAzLRre-8" target="kBxTNqgfzR1XNTAzLRre-47">
          <mxGeometry relative="1" as="geometry" />
        </mxCell>
        <mxCell id="kBxTNqgfzR1XNTAzLRre-8" value="&lt;span style=&quot;font-size: 16px; text-wrap-mode: nowrap;&quot;&gt;城南区&lt;/span&gt;" style="rounded=0;whiteSpace=wrap;html=1;" vertex="1" parent="1">
          <mxGeometry x="267" y="3" width="120" height="60" as="geometry" />
        </mxCell>
        <mxCell id="kBxTNqgfzR1XNTAzLRre-14" value="" style="endArrow=classic;html=1;rounded=0;fontSize=12;startSize=8;endSize=8;curved=1;exitX=1;exitY=0.5;exitDx=0;exitDy=0;" edge="1" parent="1" source="kBxTNqgfzR1XNTAzLRre-19" target="kBxTNqgfzR1XNTAzLRre-20">
          <mxGeometry width="50" height="50" relative="1" as="geometry">
            <mxPoint x="239.93999999999994" y="-245.99999999999994" as="sourcePoint" />
            <mxPoint x="239.62" y="-154.44" as="targetPoint" />
          </mxGeometry>
        </mxCell>
        <mxCell id="kBxTNqgfzR1XNTAzLRre-18" style="edgeStyle=none;curved=1;rounded=0;orthogonalLoop=1;jettySize=auto;html=1;entryX=0.5;entryY=0;entryDx=0;entryDy=0;fontSize=12;startSize=8;endSize=8;" edge="1" parent="1" source="kBxTNqgfzR1XNTAzLRre-15" target="kBxTNqgfzR1XNTAzLRre-1">
          <mxGeometry relative="1" as="geometry" />
        </mxCell>
        <mxCell id="kBxTNqgfzR1XNTAzLRre-15" value="&lt;span style=&quot;forced-color-adjust: none; color: rgb(0, 0, 0); font-family: Helvetica; font-size: 12px; font-style: normal; font-variant-ligatures: normal; font-variant-caps: normal; font-weight: 400; letter-spacing: normal; orphans: 2; text-align: center; text-indent: 0px; text-transform: none; widows: 2; word-spacing: 0px; -webkit-text-stroke-width: 0px; white-space: nowrap; text-decoration-thickness: initial; text-decoration-style: initial; text-decoration-color: initial; background-color: light-dark(rgb(255, 255, 255), rgb(18, 18, 18));&quot;&gt;一二期出水&lt;/span&gt;&lt;br style=&quot;forced-color-adjust: none; color: rgb(0, 0, 0); font-family: Helvetica; font-size: 12px; font-style: normal; font-variant-ligatures: normal; font-variant-caps: normal; font-weight: 400; letter-spacing: normal; orphans: 2; text-align: center; text-indent: 0px; text-transform: none; widows: 2; word-spacing: 0px; -webkit-text-stroke-width: 0px; white-space: nowrap; background-color: rgb(236, 236, 236); text-decoration-thickness: initial; text-decoration-style: initial; text-decoration-color: initial;&quot;&gt;&lt;span style=&quot;forced-color-adjust: none; color: rgb(0, 0, 0); font-family: Helvetica; font-size: 12px; font-style: normal; font-variant-ligatures: normal; font-variant-caps: normal; font-weight: 400; letter-spacing: normal; orphans: 2; text-align: center; text-indent: 0px; text-transform: none; widows: 2; word-spacing: 0px; -webkit-text-stroke-width: 0px; white-space: nowrap; text-decoration-thickness: initial; text-decoration-style: initial; text-decoration-color: initial; background-color: light-dark(rgb(255, 255, 255), rgb(18, 18, 18));&quot;&gt;DN1000&lt;/span&gt;&lt;div&gt;&lt;span style=&quot;forced-color-adjust: none; color: rgb(0, 0, 0); font-family: Helvetica; font-size: 12px; font-style: normal; font-variant-ligatures: normal; font-variant-caps: normal; font-weight: 400; letter-spacing: normal; orphans: 2; text-align: center; text-indent: 0px; text-transform: none; widows: 2; word-spacing: 0px; -webkit-text-stroke-width: 0px; white-space: nowrap; text-decoration-thickness: initial; text-decoration-style: initial; text-decoration-color: initial; background-color: light-dark(rgb(255, 255, 255), rgb(18, 18, 18));&quot;&gt;231212060&lt;/span&gt;&lt;br&gt;&lt;/div&gt;" style="ellipse;whiteSpace=wrap;html=1;aspect=fixed;" vertex="1" parent="1">
          <mxGeometry x="342" y="-352" width="76" height="76" as="geometry" />
        </mxCell>
        <mxCell id="kBxTNqgfzR1XNTAzLRre-22" style="edgeStyle=none;curved=1;rounded=0;orthogonalLoop=1;jettySize=auto;html=1;fontSize=12;startSize=8;endSize=8;entryX=0;entryY=0;entryDx=0;entryDy=0;" edge="1" parent="1" source="kBxTNqgfzR1XNTAzLRre-19" target="kBxTNqgfzR1XNTAzLRre-8">
          <mxGeometry relative="1" as="geometry" />
        </mxCell>
        <mxCell id="kBxTNqgfzR1XNTAzLRre-19" value="&lt;div&gt;三期出水&lt;/div&gt;&lt;div&gt;DN1200&lt;/div&gt;&lt;div&gt;230310281&lt;/div&gt;" style="ellipse;whiteSpace=wrap;html=1;aspect=fixed;" vertex="1" parent="1">
          <mxGeometry x="45" y="-308" width="80" height="80" as="geometry" />
        </mxCell>
        <mxCell id="kBxTNqgfzR1XNTAzLRre-21" style="edgeStyle=none;curved=1;rounded=0;orthogonalLoop=1;jettySize=auto;html=1;entryX=0;entryY=0.5;entryDx=0;entryDy=0;fontSize=12;startSize=8;endSize=8;" edge="1" parent="1" source="kBxTNqgfzR1XNTAzLRre-20" target="kBxTNqgfzR1XNTAzLRre-1">
          <mxGeometry relative="1" as="geometry" />
        </mxCell>
        <mxCell id="kBxTNqgfzR1XNTAzLRre-20" value="&lt;span style=&quot;text-wrap-mode: nowrap; background-color: rgb(255, 255, 255);&quot;&gt;三期往锦屏大道&lt;/span&gt;&lt;br style=&quot;text-wrap-mode: nowrap;&quot;&gt;&lt;span style=&quot;text-wrap-mode: nowrap; background-color: rgb(255, 255, 255);&quot;&gt;DN800&lt;/span&gt;&lt;br style=&quot;text-wrap-mode: nowrap;&quot;&gt;&lt;span style=&quot;text-wrap-mode: nowrap; background-color: rgb(255, 255, 255);&quot;&gt;43810365&lt;/span&gt;" style="ellipse;whiteSpace=wrap;html=1;aspect=fixed;" vertex="1" parent="1">
          <mxGeometry x="208.9999999999999" y="-279.00000000000006" width="80" height="80" as="geometry" />
        </mxCell>
        <mxCell id="kBxTNqgfzR1XNTAzLRre-25" style="edgeStyle=none;curved=1;rounded=0;orthogonalLoop=1;jettySize=auto;html=1;entryX=1;entryY=0;entryDx=0;entryDy=0;fontSize=12;startSize=8;endSize=8;" edge="1" parent="1" source="kBxTNqgfzR1XNTAzLRre-24" target="kBxTNqgfzR1XNTAzLRre-1">
          <mxGeometry relative="1" as="geometry" />
        </mxCell>
        <mxCell id="kBxTNqgfzR1XNTAzLRre-24" value="&lt;div&gt;水厂出水&lt;/div&gt;&lt;div&gt;DN1200&lt;/div&gt;&lt;div&gt;01161214&lt;/div&gt;" style="ellipse;whiteSpace=wrap;html=1;aspect=fixed;" vertex="1" parent="1">
          <mxGeometry x="517" y="-330.99846153846164" width="80" height="80" as="geometry" />
        </mxCell>
        <mxCell id="kBxTNqgfzR1XNTAzLRre-40" style="edgeStyle=none;curved=1;rounded=0;orthogonalLoop=1;jettySize=auto;html=1;fontSize=12;startSize=8;endSize=8;" edge="1" parent="1" source="kBxTNqgfzR1XNTAzLRre-26" target="kBxTNqgfzR1XNTAzLRre-8">
          <mxGeometry relative="1" as="geometry" />
        </mxCell>
        <mxCell id="kBxTNqgfzR1XNTAzLRre-26" value="&lt;div&gt;一二期过河&lt;/div&gt;&lt;div&gt;DN800&lt;/div&gt;&lt;div&gt;34520121&lt;/div&gt;" style="ellipse;whiteSpace=wrap;html=1;aspect=fixed;direction=south;" vertex="1" parent="1">
          <mxGeometry x="209" y="-134" width="80" height="80" as="geometry" />
        </mxCell>
        <mxCell id="kBxTNqgfzR1XNTAzLRre-41" style="edgeStyle=none;curved=1;rounded=0;orthogonalLoop=1;jettySize=auto;html=1;fontSize=12;startSize=8;endSize=8;" edge="1" parent="1" source="kBxTNqgfzR1XNTAzLRre-27" target="kBxTNqgfzR1XNTAzLRre-8">
          <mxGeometry relative="1" as="geometry" />
        </mxCell>
        <mxCell id="kBxTNqgfzR1XNTAzLRre-27" value="&lt;div&gt;柳树林&lt;/div&gt;&lt;div&gt;N400&lt;/div&gt;&lt;div&gt;43810368&lt;/div&gt;" style="ellipse;whiteSpace=wrap;html=1;aspect=fixed;" vertex="1" parent="1">
          <mxGeometry x="316" y="-128" width="80" height="80" as="geometry" />
        </mxCell>
        <mxCell id="kBxTNqgfzR1XNTAzLRre-42" style="edgeStyle=none;curved=1;rounded=0;orthogonalLoop=1;jettySize=auto;html=1;fontSize=12;startSize=8;endSize=8;" edge="1" parent="1" source="kBxTNqgfzR1XNTAzLRre-28" target="kBxTNqgfzR1XNTAzLRre-8">
          <mxGeometry relative="1" as="geometry" />
        </mxCell>
        <mxCell id="kBxTNqgfzR1XNTAzLRre-28" value="&lt;div&gt;一桥北&lt;/div&gt;&lt;div&gt;N500&lt;/div&gt;&lt;div&gt;43810364&lt;/div&gt;" style="ellipse;whiteSpace=wrap;html=1;aspect=fixed;" vertex="1" parent="1">
          <mxGeometry x="424" y="-122" width="80" height="80" as="geometry" />
        </mxCell>
        <mxCell id="kBxTNqgfzR1XNTAzLRre-43" style="edgeStyle=none;curved=1;rounded=0;orthogonalLoop=1;jettySize=auto;html=1;entryX=1;entryY=0.5;entryDx=0;entryDy=0;fontSize=12;startSize=8;endSize=8;" edge="1" parent="1" source="kBxTNqgfzR1XNTAzLRre-29" target="kBxTNqgfzR1XNTAzLRre-8">
          <mxGeometry relative="1" as="geometry" />
        </mxCell>
        <mxCell id="kBxTNqgfzR1XNTAzLRre-29" value="&lt;div&gt;二桥下&lt;/div&gt;&lt;div&gt;DN400&lt;/div&gt;&lt;div&gt;43810369&lt;/div&gt;" style="ellipse;whiteSpace=wrap;html=1;aspect=fixed;" vertex="1" parent="1">
          <mxGeometry x="527" y="-125" width="80" height="80" as="geometry" />
        </mxCell>
        <mxCell id="kBxTNqgfzR1XNTAzLRre-44" style="edgeStyle=none;curved=1;rounded=0;orthogonalLoop=1;jettySize=auto;html=1;entryX=1;entryY=0.75;entryDx=0;entryDy=0;fontSize=12;startSize=8;endSize=8;" edge="1" parent="1" source="kBxTNqgfzR1XNTAzLRre-30" target="kBxTNqgfzR1XNTAzLRre-8">
          <mxGeometry relative="1" as="geometry" />
        </mxCell>
        <mxCell id="kBxTNqgfzR1XNTAzLRre-30" value="&lt;div&gt;左岸春天&lt;/div&gt;&lt;div&gt;DN800&lt;/div&gt;&lt;div&gt;34951847&lt;/div&gt;" style="ellipse;whiteSpace=wrap;html=1;aspect=fixed;" vertex="1" parent="1">
          <mxGeometry x="630" y="-122" width="80" height="80" as="geometry" />
        </mxCell>
        <mxCell id="kBxTNqgfzR1XNTAzLRre-31" value="&lt;div&gt;白龙加油站&lt;/div&gt;&lt;div&gt;DN600&lt;/div&gt;&lt;div&gt;33832670&lt;/div&gt;" style="ellipse;whiteSpace=wrap;html=1;aspect=fixed;" vertex="1" parent="1">
          <mxGeometry x="828" y="-122" width="80" height="80" as="geometry" />
        </mxCell>
        <mxCell id="kBxTNqgfzR1XNTAzLRre-45" style="edgeStyle=none;curved=1;rounded=0;orthogonalLoop=1;jettySize=auto;html=1;entryX=1;entryY=1;entryDx=0;entryDy=0;fontSize=12;startSize=8;endSize=8;" edge="1" parent="1" source="kBxTNqgfzR1XNTAzLRre-32" target="kBxTNqgfzR1XNTAzLRre-8">
          <mxGeometry relative="1" as="geometry" />
        </mxCell>
        <mxCell id="kBxTNqgfzR1XNTAzLRre-32" value="&lt;div&gt;三桥&lt;/div&gt;&lt;div&gt;DN400&lt;/div&gt;&lt;div&gt;43810366&lt;/div&gt;" style="ellipse;whiteSpace=wrap;html=1;aspect=fixed;" vertex="1" parent="1">
          <mxGeometry x="729" y="-125" width="80" height="80" as="geometry" />
        </mxCell>
        <mxCell id="kBxTNqgfzR1XNTAzLRre-35" style="edgeStyle=none;curved=1;rounded=0;orthogonalLoop=1;jettySize=auto;html=1;entryX=0.394;entryY=0.035;entryDx=0;entryDy=0;entryPerimeter=0;fontSize=12;startSize=8;endSize=8;" edge="1" parent="1" source="kBxTNqgfzR1XNTAzLRre-1" target="kBxTNqgfzR1XNTAzLRre-28">
          <mxGeometry relative="1" as="geometry" />
        </mxCell>
        <mxCell id="kBxTNqgfzR1XNTAzLRre-46" style="edgeStyle=none;curved=1;rounded=0;orthogonalLoop=1;jettySize=auto;html=1;entryX=0.946;entryY=1.015;entryDx=0;entryDy=0;entryPerimeter=0;fontSize=12;startSize=8;endSize=8;" edge="1" parent="1" source="kBxTNqgfzR1XNTAzLRre-31" target="kBxTNqgfzR1XNTAzLRre-8">
          <mxGeometry relative="1" as="geometry" />
        </mxCell>
        <mxCell id="kBxTNqgfzR1XNTAzLRre-47" value="&lt;div&gt;关陵庙村铁路桥鱼塘旁&lt;/div&gt;&lt;div&gt;DN100&lt;/div&gt;&lt;div&gt;35940542&lt;/div&gt;" style="ellipse;whiteSpace=wrap;html=1;aspect=fixed;" vertex="1" parent="1">
          <mxGeometry x="45" y="-128" width="80" height="80" as="geometry" />
        </mxCell>
        <mxCell id="kBxTNqgfzR1XNTAzLRre-76" style="edgeStyle=none;curved=1;rounded=0;orthogonalLoop=1;jettySize=auto;html=1;entryX=1;entryY=0.75;entryDx=0;entryDy=0;fontSize=12;startSize=8;endSize=8;" edge="1" parent="1" source="kBxTNqgfzR1XNTAzLRre-48" target="kBxTNqgfzR1XNTAzLRre-75">
          <mxGeometry relative="1" as="geometry" />
        </mxCell>
        <mxCell id="kBxTNqgfzR1XNTAzLRre-48" value="&lt;div&gt;岩屋庙&lt;/div&gt;&lt;div&gt;DN300&lt;/div&gt;&lt;div&gt;39850945&lt;/div&gt;" style="ellipse;whiteSpace=wrap;html=1;aspect=fixed;" vertex="1" parent="1">
          <mxGeometry x="48" y="-1" width="80" height="80" as="geometry" />
        </mxCell>
        <mxCell id="kBxTNqgfzR1XNTAzLRre-49" value="&lt;div&gt;庆丰加压站进水&lt;/div&gt;&lt;div&gt;DN400&lt;/div&gt;&lt;div&gt;30980339&lt;/div&gt;" style="ellipse;whiteSpace=wrap;html=1;aspect=fixed;" vertex="1" parent="1">
          <mxGeometry x="338" y="94" width="80" height="80" as="geometry" />
        </mxCell>
        <mxCell id="kBxTNqgfzR1XNTAzLRre-65" style="edgeStyle=none;curved=1;rounded=0;orthogonalLoop=1;jettySize=auto;html=1;entryX=0;entryY=1;entryDx=0;entryDy=0;fontSize=12;startSize=8;endSize=8;" edge="1" parent="1" source="kBxTNqgfzR1XNTAzLRre-53" target="kBxTNqgfzR1XNTAzLRre-59">
          <mxGeometry relative="1" as="geometry" />
        </mxCell>
        <mxCell id="kBxTNqgfzR1XNTAzLRre-68" style="edgeStyle=none;curved=1;rounded=0;orthogonalLoop=1;jettySize=auto;html=1;fontSize=12;startSize=8;endSize=8;" edge="1" parent="1" source="kBxTNqgfzR1XNTAzLRre-53" target="kBxTNqgfzR1XNTAzLRre-64">
          <mxGeometry relative="1" as="geometry" />
        </mxCell>
        <mxCell id="kBxTNqgfzR1XNTAzLRre-69" style="edgeStyle=none;curved=1;rounded=0;orthogonalLoop=1;jettySize=auto;html=1;fontSize=12;startSize=8;endSize=8;" edge="1" parent="1" source="kBxTNqgfzR1XNTAzLRre-53" target="kBxTNqgfzR1XNTAzLRre-63">
          <mxGeometry relative="1" as="geometry" />
        </mxCell>
        <mxCell id="kBxTNqgfzR1XNTAzLRre-70" style="edgeStyle=none;curved=1;rounded=0;orthogonalLoop=1;jettySize=auto;html=1;fontSize=12;startSize=8;endSize=8;" edge="1" parent="1" source="kBxTNqgfzR1XNTAzLRre-53" target="kBxTNqgfzR1XNTAzLRre-60">
          <mxGeometry relative="1" as="geometry" />
        </mxCell>
        <mxCell id="kBxTNqgfzR1XNTAzLRre-53" value="漳东片区" style="rounded=0;whiteSpace=wrap;html=1;" vertex="1" parent="1">
          <mxGeometry x="788" y="-262" width="120" height="60" as="geometry" />
        </mxCell>
        <mxCell id="kBxTNqgfzR1XNTAzLRre-56" style="edgeStyle=none;curved=1;rounded=0;orthogonalLoop=1;jettySize=auto;html=1;fontSize=12;startSize=8;endSize=8;" edge="1" parent="1" source="kBxTNqgfzR1XNTAzLRre-61" target="kBxTNqgfzR1XNTAzLRre-53">
          <mxGeometry relative="1" as="geometry">
            <mxPoint x="875.080526102" y="-374.5350586814443" as="sourcePoint" />
          </mxGeometry>
        </mxCell>
        <mxCell id="kBxTNqgfzR1XNTAzLRre-57" value="&lt;div&gt;漳东线脚东乡总表&lt;/div&gt;&lt;div&gt;DN300&lt;/div&gt;&lt;div&gt;240323831&lt;/div&gt;" style="ellipse;whiteSpace=wrap;html=1;aspect=fixed;" vertex="1" parent="1">
          <mxGeometry x="1051" y="-474" width="80" height="80" as="geometry" />
        </mxCell>
        <mxCell id="kBxTNqgfzR1XNTAzLRre-58" value="&lt;div&gt;官档村总表&lt;/div&gt;&lt;div&gt;DN300&lt;/div&gt;&lt;div&gt;240323830&lt;/div&gt;" style="ellipse;whiteSpace=wrap;html=1;aspect=fixed;" vertex="1" parent="1">
          <mxGeometry x="1068" y="-391" width="80" height="80" as="geometry" />
        </mxCell>
        <mxCell id="kBxTNqgfzR1XNTAzLRre-59" value="&lt;div&gt;当阳市育溪自来水厂&lt;/div&gt;&lt;div&gt;DN400&lt;/div&gt;&lt;div&gt;240223694&lt;/div&gt;" style="ellipse;whiteSpace=wrap;html=1;aspect=fixed;" vertex="1" parent="1">
          <mxGeometry x="994" y="-539" width="80" height="80" as="geometry" />
        </mxCell>
        <mxCell id="kBxTNqgfzR1XNTAzLRre-60" value="&lt;div&gt;漳东连接两河加压站&lt;/div&gt;&lt;div&gt;DN600&lt;/div&gt;&lt;div&gt;240524560&lt;/div&gt;" style="ellipse;whiteSpace=wrap;html=1;aspect=fixed;" vertex="1" parent="1">
          <mxGeometry x="1068" y="-128" width="80" height="80" as="geometry" />
        </mxCell>
        <mxCell id="kBxTNqgfzR1XNTAzLRre-61" value="&lt;div&gt;桐树垭水厂漳东方向DN800出水流量监测点&lt;/div&gt;&lt;div&gt;DN800&lt;/div&gt;&lt;div&gt;240312253&lt;/div&gt;" style="ellipse;whiteSpace=wrap;html=1;aspect=fixed;" vertex="1" parent="1">
          <mxGeometry x="729" y="-370" width="80" height="80" as="geometry" />
        </mxCell>
        <mxCell id="kBxTNqgfzR1XNTAzLRre-62" value="&lt;div&gt;漳东线与白龙村600东线碰头处&lt;/div&gt;&lt;div&gt;DN600&lt;/div&gt;&lt;div&gt;47780023&lt;/div&gt;" style="ellipse;whiteSpace=wrap;html=1;aspect=fixed;" vertex="1" parent="1">
          <mxGeometry x="943" y="-81" width="80" height="80" as="geometry" />
        </mxCell>
        <mxCell id="kBxTNqgfzR1XNTAzLRre-63" value="&lt;div&gt;漳东进河溶考核表&lt;/div&gt;&lt;div&gt;DN400&lt;/div&gt;&lt;div&gt;240223693&lt;/div&gt;" style="ellipse;whiteSpace=wrap;html=1;aspect=fixed;" vertex="1" parent="1">
          <mxGeometry x="1099" y="-202" width="80" height="80" as="geometry" />
        </mxCell>
        <mxCell id="kBxTNqgfzR1XNTAzLRre-64" value="&lt;div&gt;漳东线跑马堤支线300戴家豁口东568米&lt;/div&gt;&lt;div&gt;DN300&lt;/div&gt;&lt;div&gt;240323829&lt;/div&gt;" style="ellipse;whiteSpace=wrap;html=1;aspect=fixed;" vertex="1" parent="1">
          <mxGeometry x="1115" y="-299" width="80" height="80" as="geometry" />
        </mxCell>
        <mxCell id="kBxTNqgfzR1XNTAzLRre-66" style="edgeStyle=none;curved=1;rounded=0;orthogonalLoop=1;jettySize=auto;html=1;entryX=0.245;entryY=0.883;entryDx=0;entryDy=0;entryPerimeter=0;fontSize=12;startSize=8;endSize=8;" edge="1" parent="1" source="kBxTNqgfzR1XNTAzLRre-53" target="kBxTNqgfzR1XNTAzLRre-57">
          <mxGeometry relative="1" as="geometry" />
        </mxCell>
        <mxCell id="kBxTNqgfzR1XNTAzLRre-67" style="edgeStyle=none;curved=1;rounded=0;orthogonalLoop=1;jettySize=auto;html=1;entryX=0.109;entryY=0.748;entryDx=0;entryDy=0;entryPerimeter=0;fontSize=12;startSize=8;endSize=8;" edge="1" parent="1" source="kBxTNqgfzR1XNTAzLRre-53" target="kBxTNqgfzR1XNTAzLRre-58">
          <mxGeometry relative="1" as="geometry" />
        </mxCell>
        <mxCell id="kBxTNqgfzR1XNTAzLRre-71" style="edgeStyle=none;curved=1;rounded=0;orthogonalLoop=1;jettySize=auto;html=1;entryX=0.258;entryY=0.09;entryDx=0;entryDy=0;entryPerimeter=0;fontSize=12;startSize=8;endSize=8;" edge="1" parent="1" source="kBxTNqgfzR1XNTAzLRre-53" target="kBxTNqgfzR1XNTAzLRre-62">
          <mxGeometry relative="1" as="geometry" />
        </mxCell>
        <mxCell id="kBxTNqgfzR1XNTAzLRre-72" value="南区" style="whiteSpace=wrap;html=1;" vertex="1" parent="1">
          <mxGeometry x="239" y="281" width="120" height="60" as="geometry" />
        </mxCell>
        <mxCell id="kBxTNqgfzR1XNTAzLRre-75" value="西区" style="whiteSpace=wrap;html=1;" vertex="1" parent="1">
          <mxGeometry x="-153" y="-4" width="120" height="60" as="geometry" />
        </mxCell>
        <mxCell id="kBxTNqgfzR1XNTAzLRre-79" style="edgeStyle=none;curved=1;rounded=0;orthogonalLoop=1;jettySize=auto;html=1;entryX=1;entryY=0;entryDx=0;entryDy=0;fontSize=12;startSize=8;endSize=8;" edge="1" parent="1" source="kBxTNqgfzR1XNTAzLRre-77" target="kBxTNqgfzR1XNTAzLRre-72">
          <mxGeometry relative="1" as="geometry" />
        </mxCell>
        <mxCell id="kBxTNqgfzR1XNTAzLRre-77" value="&lt;div style=&quot;&quot;&gt;&lt;font face=&quot;Helvetica Neue, Helvetica, PingFang SC, Tahoma, Arial, sans-serif&quot; color=&quot;rgba(0, 0, 0, 0.85)&quot;&gt;庆丰加压站出水&lt;/font&gt;&lt;/div&gt;&lt;div style=&quot;&quot;&gt;&lt;font face=&quot;Helvetica Neue, Helvetica, PingFang SC, Tahoma, Arial, sans-serif&quot; color=&quot;rgba(0, 0, 0, 0.85)&quot;&gt;DN300&lt;/font&gt;&lt;/div&gt;&lt;div style=&quot;&quot;&gt;&lt;font face=&quot;Helvetica Neue, Helvetica, PingFang SC, Tahoma, Arial, sans-serif&quot; color=&quot;rgba(0, 0, 0, 0.85)&quot;&gt;30980336&lt;/font&gt;&lt;/div&gt;" style="ellipse;whiteSpace=wrap;html=1;aspect=fixed;align=center;" vertex="1" parent="1">
          <mxGeometry x="324" y="181" width="80" height="80" as="geometry" />
        </mxCell>
        <mxCell id="kBxTNqgfzR1XNTAzLRre-78" style="edgeStyle=none;curved=1;rounded=0;orthogonalLoop=1;jettySize=auto;html=1;fontSize=12;startSize=8;endSize=8;" edge="1" parent="1" source="kBxTNqgfzR1XNTAzLRre-49" target="kBxTNqgfzR1XNTAzLRre-77">
          <mxGeometry relative="1" as="geometry" />
        </mxCell>
        <mxCell id="kBxTNqgfzR1XNTAzLRre-82" style="edgeStyle=none;curved=1;rounded=0;orthogonalLoop=1;jettySize=auto;html=1;fontSize=12;startSize=8;endSize=8;" edge="1" parent="1" source="kBxTNqgfzR1XNTAzLRre-80" target="kBxTNqgfzR1XNTAzLRre-81">
          <mxGeometry relative="1" as="geometry" />
        </mxCell>
        <mxCell id="kBxTNqgfzR1XNTAzLRre-80" value="双莲水厂" style="whiteSpace=wrap;html=1;" vertex="1" parent="1">
          <mxGeometry x="-48" y="221" width="120" height="60" as="geometry" />
        </mxCell>
        <mxCell id="kBxTNqgfzR1XNTAzLRre-81" value="&lt;div&gt;&lt;span style=&quot;background-color: rgb(255, 255, 255); color: rgba(0, 0, 0, 0.85); font-family: &amp;quot;Helvetica Neue&amp;quot;, Helvetica, &amp;quot;PingFang SC&amp;quot;, Tahoma, Arial, sans-serif; text-align: left; text-wrap-mode: nowrap;&quot;&gt;双莲水厂出水&lt;/span&gt;&lt;span style=&quot;background-color: light-dark(rgb(255, 255, 255), rgb(18, 18, 18)); color: light-dark(rgba(0, 0, 0, 0.85), rgb(237, 237, 237)); font-family: &amp;quot;Helvetica Neue&amp;quot;, Helvetica, &amp;quot;PingFang SC&amp;quot;, Tahoma, Arial, sans-serif; text-align: left;&quot;&gt;DN1000&lt;/span&gt;&lt;/div&gt;&lt;div&gt;&lt;span style=&quot;color: rgba(0, 0, 0, 0.85); font-family: &amp;quot;Helvetica Neue&amp;quot;, Helvetica, &amp;quot;PingFang SC&amp;quot;, Tahoma, Arial, sans-serif; text-align: left; background-color: rgb(255, 255, 255);&quot;&gt;24012605&lt;/span&gt;&lt;/div&gt;" style="ellipse;whiteSpace=wrap;html=1;aspect=fixed;" vertex="1" parent="1">
          <mxGeometry x="104" y="116" width="80" height="80" as="geometry" />
        </mxCell>
      </root>
    </mxGraphModel>
  </diagram>
</mxfile>
